<svg width="51" height="51" viewBox="0 0 51 51" fill="currentColor" xmlns="http://www.w3.org/2000/svg">
<g id="fi_2908101">
<g id="Mocktail">
<path id="Vector" d="M28.9368 22.9023L28.82 22.9958L28.7031 22.9023C28.7807 22.8919 28.8593 22.8919 28.9368 22.9023Z" fill="white"/>
<path id="Vector_2" d="M45.273 11.981C45.4007 11.8807 45.4939 11.743 45.5397 11.5872C45.5855 11.4314 45.5815 11.2652 45.5284 11.1117C45.4752 10.9582 45.3755 10.8252 45.2432 10.7311C45.1108 10.6369 44.9524 10.5864 44.79 10.5866H21.4827C21.256 8.74736 20.4123 7.03935 19.0893 5.74166C17.7663 4.44397 16.0423 3.63332 14.199 3.44214C12.3557 3.25097 10.5021 3.69059 8.94098 4.68916C7.37985 5.68774 6.20352 7.18623 5.60419 8.93982C5.00487 10.6934 5.01797 12.5984 5.64136 14.3436C6.26475 16.0888 7.46157 17.571 9.03629 18.548C10.611 19.525 12.4705 19.9391 14.311 19.7226C16.1515 19.5061 17.8641 18.6718 19.1692 17.356L19.6365 17.7221C19.6722 17.755 19.7113 17.7837 19.7534 17.8078L28.0418 24.3669V42.6652L20.6103 46.342C20.4528 46.4201 20.3262 46.549 20.2511 46.7079C20.176 46.8668 20.1567 47.0464 20.1964 47.2176C20.236 47.3889 20.3323 47.5417 20.4696 47.6514C20.6069 47.7611 20.7773 47.8213 20.953 47.8221H36.6885C36.8643 47.8213 37.0346 47.7611 37.1719 47.6514C37.3093 47.5417 37.4055 47.3889 37.4452 47.2176C37.4849 47.0464 37.4656 46.8668 37.3904 46.7079C37.3153 46.549 37.1888 46.4201 37.0313 46.342L29.5998 42.6574V24.3669L45.273 11.981ZM13.3657 18.2207C12.0991 18.2222 10.8586 17.8603 9.79136 17.178C8.72416 16.4958 7.87506 15.5217 7.34476 14.3714C6.81447 13.2211 6.62524 11.9428 6.79953 10.6882C6.97382 9.43362 7.5043 8.25533 8.32806 7.29313C9.15183 6.33093 10.2343 5.6252 11.447 5.25965C12.6598 4.89411 13.952 4.88409 15.1702 5.23078C16.3885 5.57747 17.4818 6.26633 18.3204 7.21564C19.159 8.16495 19.7077 9.33487 19.9014 10.5866H12.8516C12.6902 10.5886 12.5334 10.6403 12.4024 10.7347C12.2715 10.8291 12.173 10.9616 12.1201 11.1141C12.0673 11.2666 12.0628 11.4317 12.1073 11.5868C12.1518 11.742 12.243 11.8796 12.3686 11.981L17.9384 16.3823C16.7112 17.5663 15.071 18.2258 13.3657 18.2207ZM19.5898 15.6968L19.582 15.689C19.5742 15.6812 19.5664 15.6812 19.5586 15.6734L15.0951 12.1446H42.5465L41.5961 12.9002C37.7872 12.9468 34.0016 13.5022 30.3398 14.5517C27.0896 15.4456 23.7655 16.0452 20.4077 16.3433L19.5898 15.6968ZM33.3623 46.2642H24.2871L28.8208 44.0207L33.3623 46.2642ZM28.9376 22.9024L28.8208 22.9959L28.7039 22.9024L22.1682 17.7377C25.0558 17.3852 27.9142 16.8254 30.7215 16.0629C33.5953 15.2524 36.5451 14.7407 39.524 14.5361L28.9376 22.9024Z" fill="white"/>
<path id="Vector_3" d="M13.363 8.87375C13.1564 8.87375 12.9582 8.79168 12.8121 8.64559C12.6661 8.49951 12.584 8.30137 12.584 8.09477V6.5368C12.584 6.3302 12.6661 6.13206 12.8121 5.98597C12.9582 5.83988 13.1564 5.75781 13.363 5.75781C13.5696 5.75781 13.7677 5.83988 13.9138 5.98597C14.0599 6.13206 14.142 6.3302 14.142 6.5368V8.09477C14.142 8.30137 14.0599 8.49951 13.9138 8.64559C13.7677 8.79168 13.5696 8.87375 13.363 8.87375Z" fill="white"/>
<path id="Vector_4" d="M10.9185 9.86639C10.8146 9.86651 10.7116 9.84576 10.6159 9.80538C10.5201 9.765 10.4334 9.7058 10.3609 9.63129L9.27305 8.51531C9.20057 8.44231 9.14326 8.35567 9.10445 8.2604C9.06564 8.16513 9.04608 8.06311 9.0469 7.96024C9.04772 7.85737 9.06892 7.75568 9.10925 7.66105C9.14959 7.56641 9.20827 7.4807 9.28191 7.40887C9.35555 7.33703 9.44269 7.28049 9.5383 7.24252C9.63391 7.20454 9.73609 7.18588 9.83895 7.18761C9.94181 7.18934 10.0433 7.21142 10.1376 7.25259C10.2319 7.29376 10.3171 7.35319 10.3882 7.42746L11.4761 8.54344C11.5831 8.65313 11.6554 8.79195 11.6839 8.94253C11.7124 9.0931 11.6958 9.24874 11.6363 9.38995C11.5768 9.53117 11.477 9.65169 11.3493 9.73644C11.2216 9.82118 11.0717 9.86639 10.9185 9.86639Z" fill="white"/>
<path id="Vector_5" d="M15.8106 9.86565C15.6574 9.86572 15.5075 9.82061 15.3798 9.73594C15.2521 9.65127 15.1522 9.53082 15.0926 9.38965C15.033 9.24848 15.0163 9.09287 15.0447 8.94229C15.0731 8.79171 15.1453 8.65285 15.2523 8.54308L16.3393 7.42711C16.4835 7.27902 16.6806 7.19426 16.8872 7.19148C17.0939 7.18869 17.2932 7.26812 17.4412 7.41227C17.5893 7.55643 17.6741 7.75351 17.6769 7.96015C17.6797 8.1668 17.6002 8.36609 17.4561 8.51418L16.3689 9.63016C16.2963 9.70474 16.2095 9.76401 16.1136 9.80446C16.0177 9.84491 15.9147 9.86571 15.8106 9.86565Z" fill="white"/>
<path id="Vector_6" d="M9.82976 16.0027C9.67652 16.0027 9.52667 15.9575 9.39899 15.8728C9.27131 15.788 9.17146 15.6675 9.11194 15.5263C9.05242 15.3851 9.03587 15.2294 9.06437 15.0789C9.09287 14.9283 9.16515 14.7895 9.27216 14.6798L10.36 13.5642C10.4312 13.4899 10.5164 13.4305 10.6107 13.3893C10.7049 13.3481 10.8064 13.3261 10.9093 13.3243C11.0122 13.3226 11.1144 13.3413 11.21 13.3792C11.3056 13.4172 11.3927 13.4738 11.4663 13.5456C11.54 13.6174 11.5987 13.7031 11.639 13.7978C11.6793 13.8924 11.7005 13.9941 11.7014 14.097C11.7022 14.1998 11.6826 14.3018 11.6438 14.3971C11.605 14.4924 11.5477 14.579 11.4752 14.652L10.3874 15.7676C10.3148 15.8421 10.2281 15.9012 10.1324 15.9416C10.0366 15.982 9.9337 16.0028 9.82976 16.0027Z" fill="white"/>
<path id="Vector_7" d="M9.85844 12.3783H8.30047C8.09387 12.3783 7.89573 12.2962 7.74964 12.1501C7.60356 12.004 7.52148 11.8059 7.52148 11.5993C7.52148 11.3927 7.60356 11.1946 7.74964 11.0485C7.89573 10.9024 8.09387 10.8203 8.30047 10.8203H9.85844C10.065 10.8203 10.2632 10.9024 10.4093 11.0485C10.5554 11.1946 10.6374 11.3927 10.6374 11.5993C10.6374 11.8059 10.5554 12.004 10.4093 12.1501C10.2632 12.2962 10.065 12.3783 9.85844 12.3783Z" fill="white"/>
<path id="Vector_8" d="M13.363 17.4402C13.1564 17.4402 12.9582 17.3581 12.8121 17.212C12.6661 17.0659 12.584 16.8678 12.584 16.6612V15.1032C12.584 14.8966 12.6661 14.6985 12.8121 14.5524C12.9582 14.4063 13.1564 14.3242 13.363 14.3242C13.5696 14.3242 13.7677 14.4063 13.9138 14.5524C14.0599 14.6985 14.142 14.8966 14.142 15.1032V16.6612C14.142 16.8678 14.0599 17.0659 13.9138 17.212C13.7677 17.3581 13.5696 17.4402 13.363 17.4402Z" fill="white"/>
</g>
</g>
</svg>
