<svg width="51" height="51" viewBox="0 0 51 51" fill="currentColor" xmlns="http://www.w3.org/2000/svg">
<g id="fi_590923" clip-path="url(#clip0_972_552)">
<g id="Group">
<g id="Group_2">
<path id="Vector" d="M40.9623 22.5017C40.964 22.407 40.9633 22.5747 40.9633 19.854C40.9633 15.2266 26.4325 13.4129 15.9854 14.7402C15.5844 14.7909 15.3003 15.157 15.351 15.558C15.4018 15.959 15.7688 16.244 16.1689 16.1924C22.3779 15.406 30.8066 15.6976 36.0544 17.4757C38.5948 18.3356 39.4994 19.2685 39.4994 19.8541C39.4994 20.3685 38.8514 20.9871 37.7213 21.5522C35.8631 22.4821 32.8641 23.2122 29.2775 23.6083C18.0435 24.842 6.71995 22.3315 6.71995 19.8539C6.71995 19.2127 7.76224 18.2065 10.6871 17.3077C11.4815 17.0636 12.3716 16.8421 13.3319 16.6499C13.7281 16.5708 13.9848 16.1853 13.9057 15.7892C13.8257 15.392 13.4402 15.1354 13.044 15.2153C10.3467 15.7532 5.25604 17.1126 5.25604 19.8539C5.36363 20.6949 4.27568 31.6707 10.6344 39.8175C7.66233 40.326 1.07812 41.6944 1.07812 44.7C1.07812 50.4193 25.7427 52.1141 38.6465 49.0351C43.1934 47.9509 45.4995 46.4918 45.4995 44.7C45.4995 41.6327 38.6531 40.2668 35.6299 39.7638C35.9314 39.3745 36.2233 38.9665 36.5033 38.5419C43.0185 38.2047 47.7157 35.3379 49.4265 28.9876C51.0104 23.1051 44.6717 19.3539 40.9623 22.5017ZM48.0135 28.6061C47.4972 30.5219 45.9767 36.1589 37.4325 37.0051C37.5183 36.8508 37.6023 36.6947 37.6852 36.5366C37.8726 36.1785 37.735 35.7363 37.3769 35.5489C37.0187 35.3606 36.5765 35.4992 36.3882 35.8573C34.1295 40.1729 30.2746 43.9681 25.3856 43.9681H20.8339C19.41 43.9681 17.9969 43.6364 16.6335 42.9805C16.2695 42.8048 15.8323 42.9581 15.6565 43.3221C15.4818 43.687 15.6351 44.1244 15.9991 44.2991C18.1123 45.3168 19.8136 45.454 21.6127 45.4424H25.3855C28.9351 45.4424 32.1044 43.6541 34.5173 41.0707C35.8767 41.2727 37.1474 41.5138 38.3068 41.79C42.8292 42.8684 44.0354 44.1273 44.0354 44.7001C44.0354 45.2739 42.8292 46.5329 38.3068 47.6113C30.0229 49.5863 16.5593 49.5875 8.27062 47.6113C3.74918 46.5329 2.54194 45.2739 2.54194 44.7001C2.54194 44.1273 3.74918 42.8683 8.27062 41.79C9.34125 41.5343 10.5065 41.3098 11.7488 41.1185C12.2709 41.6729 12.8194 42.1822 13.3933 42.6428C13.5279 42.7511 13.69 42.8039 13.851 42.8039C14.539 42.8039 14.8485 41.934 14.3097 41.502C6.4179 35.146 6.76669 22.4891 6.71995 22.1923C12.6467 26.472 33.6137 26.4205 39.4994 22.1933C39.475 22.4748 39.704 27.6663 37.5553 33.2661C37.4109 33.6438 37.5993 34.0674 37.976 34.2118C38.3552 34.3567 38.7777 34.1676 38.9217 33.7912C39.923 31.1825 40.57 28.3043 40.8316 25.3377C41.2922 23.5517 43.1153 22.4646 44.907 22.9135C47.1101 23.4639 48.808 25.6634 48.0135 28.6061Z" fill="white"/>
</g>
</g>
<g id="Group_3">
<g id="Group_4">
<path id="Vector_2" d="M19.253 6.91265C19.253 5.91029 20.212 5.75284 20.212 4.16555C20.212 3.76126 19.8843 3.43359 19.4801 3.43359C19.0759 3.43359 18.7481 3.76126 18.7481 4.16555C18.7481 5.16782 17.7892 5.32527 17.7891 6.91265C17.7891 7.82962 18.1424 8.33577 18.4004 8.7053C18.6172 9.01583 18.7481 9.20327 18.7481 9.65976C18.7481 10.6619 17.7892 10.8194 17.7891 12.4066C17.7892 12.8108 18.1168 13.1385 18.521 13.1385C18.9252 13.1385 19.253 12.8109 19.253 12.4066C19.253 11.4055 20.212 11.2469 20.212 9.65976C20.212 8.74279 19.8587 8.23674 19.6007 7.8673C19.3838 7.55668 19.253 7.36924 19.253 6.91265Z" fill="white"/>
</g>
</g>
<g id="Group_5">
<g id="Group_6">
<path id="Vector_3" d="M27.8194 7.8673C27.6026 7.55668 27.4717 7.36924 27.4717 6.91265C27.4717 5.91029 28.4307 5.75284 28.4307 4.16555C28.4307 3.76126 28.103 3.43359 27.6987 3.43359C27.2944 3.43359 26.9667 3.76126 26.9667 4.16555C26.9667 5.16782 26.0078 5.32527 26.0078 6.91265C26.0078 7.82962 26.3611 8.33577 26.6191 8.7052C26.836 9.01583 26.9668 9.20327 26.9668 9.65976C26.9668 10.6619 26.0079 10.8194 26.0079 12.4066C26.0079 12.8109 26.3356 13.1385 26.7399 13.1385C27.1442 13.1385 27.4718 12.8109 27.4718 12.4066C27.4718 11.4044 28.4308 11.2469 28.4308 9.65976C28.4308 8.74289 28.0775 8.23684 27.8194 7.8673Z" fill="white"/>
</g>
</g>
<g id="Group_7">
<g id="Group_8">
<path id="Vector_4" d="M24.3214 1.42727C24.3214 1.02297 23.9936 0.695312 23.5894 0.695312C23.1852 0.695312 22.8575 1.02297 22.8575 1.42727C22.8575 2.9499 21.8984 3.06539 21.8984 5.05356C21.8984 7.01622 22.8575 7.18331 22.8575 8.67994C22.8575 10.1885 21.8984 10.3259 21.8984 12.3058C21.8984 12.71 22.2262 13.0378 22.6304 13.0378C23.0346 13.0378 23.3624 12.7101 23.3624 12.3058C23.3624 10.7833 24.3214 10.6679 24.3214 8.67994C24.3214 6.71719 23.3624 6.55009 23.3624 5.05356C23.3623 3.53064 24.3214 3.41564 24.3214 1.42727Z" fill="white"/>
</g>
</g>
</g>
<defs>
<clipPath id="clip0_972_552">
<rect width="49.8551" height="49.8551" fill="white" transform="translate(0.449219 0.695312)"/>
</clipPath>
</defs>
</svg>
