<svg width="51" height="51" viewBox="0 0 51 51" fill="currentColor" xmlns="http://www.w3.org/2000/svg">
<g id="fi_857681" clip-path="url(#clip0_972_465)">
<g id="Group">
<g id="Group_2">
<path id="Vector" d="M35.7544 17.5L35.221 15.7442C34.5434 13.7498 32.3773 12.6824 30.3829 13.36C29.2609 13.7412 28.3798 14.6223 27.9987 15.7442L27.4652 17.5C27.0163 18.9807 26.9221 20.5462 27.1902 22.07C27.4347 23.353 28.2492 24.4552 29.4037 25.0655L28.8063 38.4208C28.7263 39.1663 28.9681 39.9105 29.471 40.4665C30.5526 41.6496 32.3885 41.7318 33.5715 40.6503C33.6355 40.5918 33.6968 40.5305 33.7553 40.4665C34.247 39.9262 34.4883 39.2039 34.42 38.4765L33.8192 25.0638C34.9722 24.4532 35.7854 23.3517 36.0295 22.07C36.2976 20.5462 36.2034 18.9807 35.7544 17.5ZM34.3926 21.7809C34.2127 22.7026 33.5558 23.4588 32.6684 23.7659C32.3316 23.8925 32.1146 24.2216 32.1308 24.5811L32.7623 38.6078C32.7914 38.8829 32.7006 39.1572 32.513 39.3606C32.0127 39.8559 31.2069 39.8559 30.7066 39.3606C30.5097 39.1408 30.4203 38.845 30.4623 38.5529L31.0888 24.5811C31.105 24.2216 30.8881 23.8925 30.5512 23.7659C29.6638 23.4588 29.007 22.7026 28.8271 21.7809C28.6048 20.5158 28.6831 19.2161 29.0556 17.9869L29.589 16.2303C30.0018 15.1143 31.2411 14.5442 32.3572 14.957C32.9473 15.1752 33.4124 15.6404 33.6306 16.2303L34.1641 17.9869C34.5361 19.2162 34.6144 20.5158 34.3926 21.7809Z" fill="white"/>
</g>
</g>
<g id="Group_3">
<g id="Group_4">
<path id="Vector_2" d="M22.8834 13.1602C22.4245 13.1602 22.0525 13.5322 22.0525 13.9911V21.1253L19.8032 23.3746C19.6368 23.5404 19.5483 23.769 19.5597 24.0036L20.2868 38.5447C20.3041 38.8583 20.1903 39.165 19.9727 39.3914C19.5179 39.8503 18.7771 39.8536 18.3181 39.3987C18.3156 39.3963 18.3132 39.3938 18.3109 39.3914C18.0932 39.165 17.9794 38.8583 17.9968 38.5447L18.7288 24.0036C18.7404 23.7691 18.6523 23.5406 18.4862 23.3746L16.2361 21.1253V13.9911C16.2361 13.5322 15.864 13.1602 15.4051 13.1602C14.9463 13.1602 14.5742 13.5322 14.5742 13.9911V21.4693C14.5742 21.6897 14.6619 21.901 14.8177 22.0568L17.0495 24.2895L16.3407 38.4641C16.2653 40.0124 17.4594 41.3288 19.0077 41.4042C20.556 41.4796 21.8724 40.2856 21.9478 38.7373C21.9523 38.6463 21.9523 38.5552 21.9478 38.4642L21.239 24.2896L23.4709 22.0569C23.6267 21.9011 23.7143 21.6898 23.7143 21.4694V13.9912C23.7143 13.5322 23.3423 13.1602 22.8834 13.1602Z" fill="white"/>
</g>
</g>
<g id="Group_5">
<g id="Group_6">
<path id="Vector_3" d="M17.8973 13.1602C17.4384 13.1602 17.0664 13.5322 17.0664 13.9911V20.6384C17.0664 21.0973 17.4384 21.4693 17.8973 21.4693C18.3562 21.4693 18.7282 21.0973 18.7282 20.6384V13.9911C18.7282 13.5322 18.3562 13.1602 17.8973 13.1602Z" fill="white"/>
</g>
</g>
<g id="Group_7">
<g id="Group_8">
<path id="Vector_4" d="M20.3915 13.1602C19.9326 13.1602 19.5605 13.5322 19.5605 13.9911V20.6384C19.5605 21.0973 19.9326 21.4693 20.3915 21.4693C20.8503 21.4693 21.2224 21.0973 21.2224 20.6384V13.9911C21.2224 13.5322 20.8503 13.1602 20.3915 13.1602Z" fill="white"/>
</g>
</g>
<g id="Group_9">
<g id="Group_10">
<path id="Vector_5" d="M25.3768 0.695312C11.6097 0.695312 0.449219 11.8558 0.449219 25.6228C0.449219 39.3899 11.6097 50.5504 25.3768 50.5504C39.1438 50.5504 50.3043 39.3899 50.3043 25.6228C50.2887 11.8622 39.1374 0.710892 25.3768 0.695312ZM25.3768 48.8885C12.5274 48.8885 2.11105 38.4722 2.11105 25.6228C2.11105 12.7735 12.5274 2.35715 25.3768 2.35715C38.2261 2.35715 48.6425 12.7735 48.6425 25.6228C48.6278 38.466 38.2199 48.8739 25.3768 48.8885Z" fill="white"/>
</g>
</g>
<g id="Group_11">
<g id="Group_12">
<path id="Vector_6" d="M28.0755 41.219C28.0309 40.7623 27.6245 40.4282 27.1677 40.4727C27.157 40.4738 27.1463 40.475 27.1356 40.4765L27.1389 40.4756C25.9691 40.6115 24.7873 40.6115 23.6175 40.4756C23.1615 40.4222 22.7487 40.7484 22.6952 41.2044C22.6417 41.6603 22.9679 42.0732 23.4239 42.1267C24.7213 42.2782 26.0318 42.2782 27.3292 42.1267C27.7859 42.0822 28.12 41.6758 28.0755 41.219Z" fill="white"/>
</g>
</g>
<g id="Group_13">
<g id="Group_14">
<path id="Vector_7" d="M38.0893 14.9142C37.7944 14.5626 37.2703 14.5166 36.9187 14.8115C36.9176 14.8125 36.9164 14.8135 36.9152 14.8144C36.5645 15.1102 36.5198 15.6344 36.8155 15.9852C41.8254 21.9325 41.4421 30.7266 35.9339 36.2156C35.6088 36.5395 35.6079 37.0658 35.9318 37.3909C36.2558 37.716 36.782 37.7169 37.1071 37.393C43.2286 31.2948 43.6555 21.523 38.0893 14.9142Z" fill="white"/>
</g>
</g>
<g id="Group_15">
<g id="Group_16">
<g id="Group_17">
<path id="Vector_8" d="M29.296 9.46951C26.0486 8.69125 22.6429 8.90043 19.5152 10.0703C19.0856 10.2318 18.8685 10.711 19.03 11.1405C19.1517 11.4642 19.4612 11.6785 19.807 11.6788C19.9064 11.6783 20.0048 11.6601 20.0977 11.6249C22.9143 10.5716 25.9812 10.3835 28.9054 11.0848C29.3515 11.1926 29.8005 10.9185 29.9083 10.4724C30.0161 10.0263 29.7421 9.57732 29.296 9.46951Z" fill="white"/>
</g>
</g>
</g>
<g id="Group_18">
<g id="Group_19">
<path id="Vector_9" d="M14.7823 36.1768C11.9812 33.3804 10.4113 29.5822 10.4208 25.6241C10.4126 22.4619 11.4143 19.3796 13.28 16.8264C13.5558 16.4595 13.4819 15.9386 13.1151 15.6629C12.7482 15.3871 12.2273 15.461 11.9516 15.8278C11.9467 15.8344 11.9419 15.8409 11.9372 15.8475C7.13319 22.4521 7.84009 31.5684 13.6049 37.3534C13.9298 37.6785 14.4568 37.6787 14.7819 37.3538C15.107 37.0289 15.1072 36.5019 14.7823 36.1768Z" fill="white"/>
</g>
</g>
</g>
<defs>
<clipPath id="clip0_972_465">
<rect width="49.8551" height="49.8551" fill="white" transform="translate(0.449219 0.695312)"/>
</clipPath>
</defs>
</svg>
